<svg xmlns="http://www.w3.org/2000/svg" xmlns:xlink="http://www.w3.org/1999/xlink" width="456" zoomAndPan="magnify" viewBox="0 0 342 341.999987" height="456" preserveAspectRatio="xMidYMid meet" version="1.0"><defs><clipPath id="ebfb9c1040"><path d="M -6.15625 -16.652344 L 348.15625 -16.652344 C 350.941406 -16.652344 353.609375 -15.546875 355.582031 -13.578125 C 357.550781 -11.609375 358.65625 -8.9375 358.65625 -6.152344 L 358.65625 348.152344 C 358.65625 350.9375 357.550781 353.609375 355.582031 355.578125 C 353.609375 357.546875 350.941406 358.652344 348.15625 358.652344 L -6.15625 358.652344 C -8.941406 358.652344 -11.609375 357.546875 -13.582031 355.578125 C -15.550781 353.609375 -16.65625 350.9375 -16.65625 348.152344 L -16.65625 -6.152344 C -16.65625 -8.9375 -15.550781 -11.609375 -13.582031 -13.578125 C -11.609375 -15.546875 -8.941406 -16.652344 -6.15625 -16.652344 Z M -6.15625 -16.652344 " clip-rule="nonzero"/></clipPath><clipPath id="27098569e4"><path d="M 0 0 L 342 0 L 342 342 L 0 342 Z M 0 0 " clip-rule="nonzero"/></clipPath><clipPath id="6c641890ab"><path d="M -6.15625 -16.652344 L 348.15625 -16.652344 C 350.941406 -16.652344 353.609375 -15.546875 355.582031 -13.578125 C 357.550781 -11.609375 358.65625 -8.9375 358.65625 -6.152344 L 358.65625 348.152344 C 358.65625 350.9375 357.550781 353.609375 355.582031 355.578125 C 353.609375 357.546875 350.941406 358.652344 348.15625 358.652344 L -6.15625 358.652344 C -8.941406 358.652344 -11.609375 357.546875 -13.582031 355.578125 C -15.550781 353.609375 -16.65625 350.9375 -16.65625 348.152344 L -16.65625 -6.152344 C -16.65625 -8.9375 -15.550781 -11.609375 -13.582031 -13.578125 C -11.609375 -15.546875 -8.941406 -16.652344 -6.15625 -16.652344 Z M -6.15625 -16.652344 " clip-rule="nonzero"/></clipPath><clipPath id="06a5d79a6c"><rect x="0" width="342" y="0" height="342"/></clipPath></defs><rect x="-34.2" width="410.4" fill="#ffffff" y="-34.199999" height="410.399984" fill-opacity="1"/><rect x="-34.2" width="410.4" fill="#ffffff" y="-34.199999" height="410.399984" fill-opacity="1"/><g clip-path="url(#ebfb9c1040)"><g transform="matrix(1, 0, 0, 1, 0, 0)"><g clip-path="url(#06a5d79a6c)"><g clip-path="url(#27098569e4)"><g clip-path="url(#6c641890ab)"><rect x="-75.24" width="492.48" fill="#f3c889" height="492.479981" y="-75.239997" fill-opacity="1"/></g></g></g></g></g></svg>